<svg id="Layer_1" data-name="Layer 1" xmlns="http://www.w3.org/2000/svg" viewBox="0 0 512 512"><defs><style>.cls-1{fill:#ff4f19;}.cls-2{fill:#fc0023;}.cls-3{fill:#b9f7f9;}.cls-4{fill:#00d8e0;}.cls-5{fill:#ffdb2d;}.cls-6{fill:#f90;}.cls-7{fill:#85edc1;}.cls-8{fill:#48a792;}.cls-9{fill:#808285;}.cls-10{fill:#58595b;}</style></defs><title>logo</title><path class="cls-1" d="M468.3,512H256a18.7,18.7,0,0,1-18.7-18.7V256A18.7,18.7,0,0,1,256,237.3H493.3A18.7,18.7,0,0,1,512,256V468.3A43.8,43.8,0,0,1,468.3,512Z"/><path class="cls-2" d="M493.3,237.3H374.6V512h93.7A43.8,43.8,0,0,0,512,468.3V256A18.7,18.7,0,0,0,493.3,237.3Z"/><path class="cls-3" d="M512,256H237.3V18.7A18.7,18.7,0,0,1,256,0H468.3A43.7,43.7,0,0,1,512,43.7Z"/><path class="cls-4" d="M512,43.7A43.7,43.7,0,0,0,468.3,0H374.6V256H512Z"/><path class="cls-5" d="M257.2,512H43.7A43.7,43.7,0,0,1,0,468.3V256a18.7,18.7,0,0,1,18.7-18.7H257.2Z"/><rect class="cls-6" x="137.4" y="237.3" width="119.9" height="274.73"/><path class="cls-7" d="M257.2,256H0V43.7A43.7,43.7,0,0,1,43.7,0H257.2V256Z"/><rect class="cls-8" x="137.4" width="119.9" height="256"/><path class="cls-9" d="M177.3,118.6H156.1V97.4a18.7,18.7,0,1,0-37.5,0v21.2H97.4a18.7,18.7,0,1,0,0,37.5h21.2v21.2a18.7,18.7,0,1,0,37.5,0V156.1h21.2a18.7,18.7,0,1,0,0-37.5Z"/><path class="cls-9" d="M414.6,422.1H334.7a18.7,18.7,0,1,1,0-37.5h79.9a18.7,18.7,0,0,1,0,37.5Z"/><path class="cls-9" d="M414.6,364.6H334.7a18.7,18.7,0,1,1,0-37.5h79.9a18.7,18.7,0,0,1,0,37.5Z"/><path class="cls-9" d="M414.6,156.1H334.7a18.7,18.7,0,0,1,0-37.5h79.9a18.7,18.7,0,0,1,0,37.5Z"/><path class="cls-9" d="M163.9,374.6l15-15a18.7,18.7,0,0,0-26.5-26.5l-15,15-15-15a18.7,18.7,0,0,0-26.5,26.5l15,15-15,15a18.7,18.7,0,1,0,26.5,26.5l15-15,15,15a18.7,18.7,0,1,0,26.5-26.5Z"/><path class="cls-10" d="M177.3,118.6H156.1V97.4a18.7,18.7,0,0,0-18.7-18.7V196.1a18.7,18.7,0,0,0,18.7-18.7V156.1h21.2a18.7,18.7,0,1,0,0-37.5Z"/><path class="cls-10" d="M414.6,384.6h-40v37.5h40a18.7,18.7,0,1,0,0-37.5Z"/><path class="cls-10" d="M414.6,327.2h-40v37.5h40a18.7,18.7,0,1,0,0-37.5Z"/><path class="cls-10" d="M414.6,118.6h-40v37.5h40a18.7,18.7,0,1,0,0-37.5Z"/><path class="cls-10" d="M163.9,374.6l15-15a18.7,18.7,0,0,0-26.5-26.5l-15,15v53l15,15a18.7,18.7,0,0,0,26.5-26.5Z"/></svg>