<?xml version="1.0" encoding="iso-8859-1"?>
<!-- Generator: Adobe Illustrator 19.0.0, SVG Export Plug-In . SVG Version: 6.00 Build 0)  -->
<svg version="1.1" id="Layer_1" x="0px" y="0px"
	 viewBox="0 0 512 512" style="enable-background:new 0 0 512 512;" >
<path style="fill:#FF4F19;" d="M468.293,512H256c-10.345,0-18.732-8.387-18.732-18.732V256c0-10.345,8.387-18.732,18.732-18.732
	h237.268c10.345,0,18.732,8.387,18.732,18.732v212.293C512,492.393,492.393,512,468.293,512z"/>
<path style="fill:#FC0023;" d="M493.268,237.268H374.634V512h93.659c24.1,0,43.707-19.607,43.707-43.707V256
	C512,245.655,503.613,237.268,493.268,237.268z"/>
<path style="fill:#B9F7F9;" d="M512,256H237.268V18.732C237.268,8.387,245.655,0,256,0h212.293C492.432,0,512,19.568,512,43.707V256
	z"/>
<path style="fill:#00D8E0;" d="M512,43.707C512,19.568,492.432,0,468.293,0h-93.659v256H512V43.707z"/>
<path style="fill:#FFDB2D;" d="M257.249,512H43.707C19.568,512,0,492.432,0,468.293V256c0-10.345,8.387-18.732,18.732-18.732
	h238.517V512z"/>
<rect x="137.366" y="237.268" style="fill:#FF9900;" width="119.883" height="274.732"/>
<path style="fill:#85EDC1;" d="M257.249,256H0V43.707C0,19.568,19.568,0,43.707,0h213.541V256z"/>
<rect x="137.366" style="fill:#48A792;" width="119.883" height="256"/>
<g>
	<path style="fill:#808285;" d="M177.327,118.634h-21.229V97.405c0-10.345-8.387-18.732-18.732-18.732s-18.732,8.387-18.732,18.732
		v21.229H97.405c-10.345,0-18.732,8.387-18.732,18.732s8.387,18.732,18.732,18.732h21.229v21.229
		c0,10.345,8.387,18.732,18.732,18.732s18.732-8.387,18.732-18.732v-21.229h21.229c10.345,0,18.732-8.387,18.732-18.732
		S187.672,118.634,177.327,118.634z"/>
	<path style="fill:#808285;" d="M414.595,422.088h-79.922c-10.345,0-18.732-8.387-18.732-18.732
		c0-10.345,8.387-18.732,18.732-18.732h79.922c10.345,0,18.732,8.387,18.732,18.732C433.327,413.701,424.94,422.088,414.595,422.088
		z"/>
	<path style="fill:#808285;" d="M414.595,364.644h-79.922c-10.345,0-18.732-8.387-18.732-18.732
		c0-10.345,8.387-18.732,18.732-18.732h79.922c10.345,0,18.732,8.387,18.732,18.732C433.327,356.257,424.94,364.644,414.595,364.644
		z"/>
	<path style="fill:#808285;" d="M414.595,156.098h-79.922c-10.345,0-18.732-8.387-18.732-18.732s8.387-18.732,18.732-18.732h79.922
		c10.345,0,18.732,8.387,18.732,18.732S424.94,156.098,414.595,156.098z"/>
	<path style="fill:#808285;" d="M163.856,374.634l15.012-15.012c7.315-7.315,7.315-19.175,0-26.49
		c-7.314-7.314-19.175-7.315-26.49,0l-15.012,15.012l-15.012-15.012c-7.313-7.314-19.174-7.315-26.49,0
		c-7.315,7.315-7.315,19.175,0,26.49l15.012,15.012l-15.012,15.012c-7.315,7.315-7.315,19.175,0,26.49
		c7.314,7.314,19.175,7.315,26.49,0l15.012-15.012l15.012,15.012c7.314,7.315,19.174,7.315,26.49,0
		c7.315-7.315,7.315-19.175,0-26.49L163.856,374.634z"/>
</g>
<g>
	<path style="fill:#58595B;" d="M177.327,118.634h-21.229V97.405c0-10.345-8.387-18.732-18.732-18.732v117.385
		c10.345,0,18.732-8.387,18.732-18.732v-21.229h21.229c10.345,0,18.732-8.387,18.732-18.732S187.672,118.634,177.327,118.634z"/>
	<path style="fill:#58595B;" d="M414.595,384.624h-39.961v37.463h39.961c10.345,0,18.732-8.387,18.732-18.732
		C433.327,393.011,424.94,384.624,414.595,384.624z"/>
	<path style="fill:#58595B;" d="M414.595,327.18h-39.961v37.463h39.961c10.345,0,18.732-8.387,18.732-18.732
		C433.327,335.567,424.94,327.18,414.595,327.18z"/>
	<path style="fill:#58595B;" d="M414.595,118.634h-39.961v37.463h39.961c10.345,0,18.732-8.387,18.732-18.732
		S424.94,118.634,414.595,118.634z"/>
	<path style="fill:#58595B;" d="M163.856,374.634l15.012-15.012c7.315-7.315,7.315-19.175,0-26.49
		c-7.314-7.314-19.175-7.315-26.49,0l-15.012,15.012v52.981l15.012,15.012c7.314,7.315,19.174,7.315,26.49,0
		c7.315-7.315,7.315-19.175,0-26.49L163.856,374.634z"/>
</g>
<g>
</g>
<g>
</g>
<g>
</g>
<g>
</g>
<g>
</g>
<g>
</g>
<g>
</g>
<g>
</g>
<g>
</g>
<g>
</g>
<g>
</g>
<g>
</g>
<g>
</g>
<g>
</g>
<g>
</g>
</svg>
